<svg xmlns="http://www.w3.org/2000/svg" width="64" height="64" viewBox="0 0 64 64">
    <defs>
        <clipPath id="aigsry0xfa">
            <path data-name="사각형 480" style="fill:#d1d1d1" d="M0 0h64v64H0z"/>
        </clipPath>
    </defs>
    <g data-name="그룹 358" style="clip-path:url(#aigsry0xfa)">
        <g data-name="그룹 357">
            <g data-name="그룹 356" style="clip-path:url(#aigsry0xfa)">
                <path data-name="패스 12708" d="m11.217 36.834-.036-.016-.046.215c.029-.067.053-.132.082-.2" style="fill:#d1d1d1"/>
                <path data-name="패스 12709" d="M54.991 9.009c-3.843-3.839-10.462-4.221-18.16-1.047l3.34 1.968c5.485-1.769 10.135-1.361 12.7 1.2 5.507 5.506.6 19.716-10.711 31.029-5.692 5.694-12.153 9.9-18.193 11.855-5.7 1.841-10.257 1.435-12.836-1.144-2.774-2.774-2.985-7.882-.654-14.178l-1.972-3.034-.04-.018c-3.615 8.339-3.416 15.393.544 19.352a11.675 11.675 0 0 0 8.545 3.155 24.076 24.076 0 0 0 7.333-1.277c6.484-2.095 13.372-6.57 19.393-12.589C57.173 31.389 61.877 15.9 54.991 9.009" style="fill:#d1d1d1"/>
                <path data-name="패스 12710" d="m29.15 16.029-2.9-1.494a63.243 63.243 0 0 0-6.436 5.607A61.591 61.591 0 0 0 14.8 25.8l1.611 2.814a58.505 58.505 0 0 1 5.522-6.348 60.3 60.3 0 0 1 7.254-6.189z" style="fill:#d1d1d1"/>
                <path data-name="패스 12711" d="M43.319 21.8a59.934 59.934 0 0 1 5.281 5.813l1.364-3.06a63.075 63.075 0 0 0-4.564-4.916C32.133 6.839 16.2 2.159 9.115 8.981a11.5 11.5 0 0 0-3.255 8.534c0 7.9 5.479 18.1 14.3 26.612a60.665 60.665 0 0 0 6.472 5.438l2.87-1.586.017-.025a57.959 57.959 0 0 1-7.274-5.983C14.113 34.123 8.858 24.524 8.86 17.516a8.479 8.479 0 0 1 2.34-6.375c5.71-5.511 20.422-.628 32.119 10.659" style="fill:#d1d1d1"/>
                <path data-name="패스 12712" d="m56.195 36.769-2.053 3.21c1.7 5.518 1.238 10.212-1.356 12.805-2.641 2.643-7.414 3.036-13.3 1.167l-3.374 1.982a27.74 27.74 0 0 0 10.062 2.2 11.909 11.909 0 0 0 8.73-3.228c3.847-3.847 4.317-10.457 1.288-18.137" style="fill:#d1d1d1"/>
            </g>
        </g>
    </g>
</svg>
