<svg xmlns="http://www.w3.org/2000/svg" width="120" height="120" viewBox="0 0 120 120">
    <g data-name="그룹 410">
        <path data-name="패스 12759" d="M76.408 91.232V76.814L88.43 64.789h14.356l12.022 12.025V91.24l-19.07 21.539zm10.033-31.243L71.608 74.826v18.243L95.761 120l23.847-26.94V74.826l-14.832-14.837z"/>
        <path data-name="사각형 527" d="M91.418 80.283h9v9h-9z"/>
        <path data-name="패스 12760" d="M20.051 101.683h-4.8V81.7L34.93 69.161V56.992l-11.9.072V25.84h4.8v26.395l11.9-.072v19.631L20.051 84.335z"/>
        <path data-name="패스 12761" d="M66.312 38.35H44.187V19.125h4.8V33.55h15.337l10.66-10.661 3.394 3.394z"/>
        <path data-name="패스 12762" d="M32.745 14.4.392 47.146V87.2L32.8 120h39.585l15.636-15.824-11.613-12.945V76.813l12.023-12.024h16.361v-4.8h-18.35L71.609 74.826v18.242l9.822 10.949L70.38 115.2H34.8L5.191 85.233V49.117L34.751 19.2h35.682l27.6 27.934h6.748L72.439 14.4z"/>
    </g>
</svg>
