<svg xmlns="http://www.w3.org/2000/svg" width="120" height="120" viewBox="0 0 120 120">
    <g data-name="그룹 402">
        <path data-name="패스 12753" d="M27.545 27.759h-7.81l15.9 12.384 2.948-3.787z"/>
        <path data-name="패스 12754" d="m92.408 27.759-11.035 8.6 2.948 3.787 15.9-12.384z"/>
        <path data-name="패스 12755" d="M4.848 40.65H115.2v15.6H4.848zM.05 61.05H120v-25.2H.05z"/>
        <path data-name="패스 12756" d="M62.36 40.65H34.772v-25.2h16.075L62.36 27.033zm-22.79-4.8h17.992v-6.837l-8.71-8.763H39.57z"/>
        <path data-name="패스 12757" d="M85.228 40.65H57.639V27.033L69.152 15.45h16.076zm-22.79-4.8h17.991v-15.6h-9.282l-8.709 8.763z"/>
        <path data-name="사각형 523" d="M57.576 26.224h4.798v89.36h-4.798z"/>
        <path data-name="패스 12758" d="M9.7 56.249v63.623h85.362l15.392-15.4v-.055h-6.73l-10.65 10.654h-78.58V61.05h91.162v31.367h4.8V56.249z"/>
    </g>
</svg>
