<svg xmlns="http://www.w3.org/2000/svg" width="120" height="120.052" viewBox="0 0 120 120.052">
    <g data-name="그룹 394">
        <path data-name="사각형 515" transform="translate(46.764 94.964)" style="fill:#121212" d="M0 0h4.8v24.984H0z"/>
        <path data-name="사각형 516" transform="translate(66.889 94.964)" style="fill:#121212" d="M0 0h4.8v24.984H0z"/>
        <path data-name="패스 12749" d="m28.3 119.851 57.4.2 4.784-4.779-57.4-.2z" style="fill:#121212"/>
        <path data-name="패스 12750" d="M0 18.186v79.131h105.6L120 82.932h-6.787l-9.6 9.59H4.8V22.981h110.4v47.96h4.8V18.186z"/>
        <path data-name="패스 12751" d="M100.275 79.983h-28.4V55.255h28.4zm-23.6-4.8h18.8V60.05H76.68z" style="fill:#121212"/>
        <path data-name="패스 12752" d="M40.1 58.626H19.725v-23.61H40.1zm-15.573-4.8H35.3V39.812H24.525z" style="fill:#121212"/>
        <path data-name="사각형 517" transform="translate(48.803 40.867)" style="fill:#121212" d="M0 0h44.103v4.796H0z"/>
        <path data-name="사각형 518" transform="translate(19.717 65.22)" style="fill:#121212" d="M0 0h43.264v4.796H0z"/>
        <path data-name="사각형 519" transform="translate(34.799 74.212)" style="fill:#121212" d="M0 0h28.183v4.796H0z"/>
    </g>
</svg>
